 <svg  version="1.0" xmlns="http://www.w3.org/2000/svg"  width="300.000000pt" height="341.000000pt" viewBox="0 0 300.000000 341.000000"  preserveAspectRatio="xMidYMid meet">  <g transform="translate(0.000000,341.000000) scale(0.100000,-0.100000)" fill="#64ffdb" stroke="none"> <path d="M670 3144 c-6 -6 -9 -132 -7 -305 l2 -294 155 -6 c85 -4 259 -7 385 -8 241 -1 325 -11 447 -52 448 -149 704 -624 588 -1087 -25 -96 -94 -236 -160 -325 -46 -59 -84 -97 -233 -229 l-37 -33 150 -252 c83 -139 157 -253 164 -253 7 0 39 17 72 38 365 236 608 635 669 1096 18 137 19 221 5 354 -71 665 -576 1221 -1215 1338 -91 17 -204 21 -723 27 -180 2 -256 0 -262 -9z"/> <path d="M662 1613 l3 -308 355 0 c350 0 356 0 420 24 119 44 181 113 205 227 32 153 -36 279 -182 339 l-63 25 -370 0 -370 0 2 -307z"/> <path d="M800 700 l-135 -5 0 -265 0 -265 328 -3 c180 -1 327 1 327 5 0 5 -13 31 -29 58 -29 52 -255 440 -269 463 -11 17 -46 19 -222 12z"/> <path d="M2986 244 c-3 -9 -2 -23 4 -32 7 -14 9 -10 10 16 0 35 -5 41 -14 16z"/> </g> </svg> 